<mxfile host="app.diagrams.net" agent="Mozilla/5.0 (Windows NT 10.0; Win64; x64) AppleWebKit/537.36 (KHTML, like Gecko) Chrome/131.0.0.0 Safari/537.36" version="25.0.1" pages="2">
  <diagram id="K5qsmqvL3TNZuLix_C-k" name="Практика-1">
    <mxGraphModel dx="3000" dy="1514" grid="1" gridSize="11" guides="1" tooltips="1" connect="1" arrows="1" fold="1" page="1" pageScale="1" pageWidth="827" pageHeight="1169" math="0" shadow="0">
      <root>
        <mxCell id="0" />
        <mxCell id="1" parent="0" />
        <mxCell id="dajjcy8lkkAR254hlwYN-2" value="Проверка наличия читательского билета" style="rhombus;strokeWidth=2;whiteSpace=wrap;" vertex="1" parent="1">
          <mxGeometry x="146" y="88" width="294" height="266" as="geometry" />
        </mxCell>
        <mxCell id="dajjcy8lkkAR254hlwYN-3" value="Выбор книги из каталога" style="whiteSpace=wrap;strokeWidth=2;" vertex="1" parent="1">
          <mxGeometry x="166" y="526" width="255" height="66" as="geometry" />
        </mxCell>
        <mxCell id="dajjcy8lkkAR254hlwYN-4" value="Оформление билета" style="whiteSpace=wrap;strokeWidth=2;" vertex="1" parent="1">
          <mxGeometry x="306" y="418" width="145" height="50" as="geometry" />
        </mxCell>
        <mxCell id="dajjcy8lkkAR254hlwYN-5" value="Доступна ли эта книга?" style="rhombus;strokeWidth=2;whiteSpace=wrap;" vertex="1" parent="1">
          <mxGeometry x="68" y="642" width="203" height="203" as="geometry" />
        </mxCell>
        <mxCell id="dajjcy8lkkAR254hlwYN-6" value="Регистрация выдачи книги" style="whiteSpace=wrap;strokeWidth=2;" vertex="1" parent="1">
          <mxGeometry x="22" y="917" width="250" height="66" as="geometry" />
        </mxCell>
        <mxCell id="dajjcy8lkkAR254hlwYN-7" value="Выбор другой книги" style="whiteSpace=wrap;strokeWidth=2;" vertex="1" parent="1">
          <mxGeometry x="322" y="917" width="233" height="66" as="geometry" />
        </mxCell>
        <mxCell id="dajjcy8lkkAR254hlwYN-8" value="Читатель получает книгу" style="whiteSpace=wrap;strokeWidth=2;" vertex="1" parent="1">
          <mxGeometry x="23" y="1033" width="249" height="66" as="geometry" />
        </mxCell>
        <mxCell id="dajjcy8lkkAR254hlwYN-10" value="" style="curved=1;startArrow=none;endArrow=block;exitX=0.5;exitY=1;entryX=0.5;entryY=0;rounded=0;exitDx=0;exitDy=0;" edge="1" parent="1" source="Xar_051_JwcGe3-05TLg-20" target="dajjcy8lkkAR254hlwYN-2">
          <mxGeometry relative="1" as="geometry">
            <Array as="points" />
            <mxPoint x="293" y="55" as="sourcePoint" />
          </mxGeometry>
        </mxCell>
        <mxCell id="dajjcy8lkkAR254hlwYN-11" value="Билет есть" style="curved=1;startArrow=none;endArrow=block;exitX=0.22;exitY=1;entryX=0.31;entryY=0;rounded=0;" edge="1" parent="1" source="dajjcy8lkkAR254hlwYN-2" target="dajjcy8lkkAR254hlwYN-3">
          <mxGeometry relative="1" as="geometry">
            <Array as="points">
              <mxPoint x="207" y="374" />
              <mxPoint x="207" y="501" />
            </Array>
          </mxGeometry>
        </mxCell>
        <mxCell id="dajjcy8lkkAR254hlwYN-12" value="Билета нет" style="curved=1;startArrow=none;endArrow=block;exitX=0.78;exitY=1;entryX=0.5;entryY=0;rounded=0;" edge="1" parent="1" source="dajjcy8lkkAR254hlwYN-2" target="dajjcy8lkkAR254hlwYN-4">
          <mxGeometry relative="1" as="geometry">
            <Array as="points">
              <mxPoint x="379" y="374" />
            </Array>
          </mxGeometry>
        </mxCell>
        <mxCell id="dajjcy8lkkAR254hlwYN-13" value="" style="curved=1;startArrow=none;endArrow=block;exitX=0.5;exitY=1;entryX=0.69;entryY=0;rounded=0;" edge="1" parent="1" source="dajjcy8lkkAR254hlwYN-4" target="dajjcy8lkkAR254hlwYN-3">
          <mxGeometry relative="1" as="geometry">
            <Array as="points">
              <mxPoint x="379" y="501" />
            </Array>
          </mxGeometry>
        </mxCell>
        <mxCell id="dajjcy8lkkAR254hlwYN-14" value="" style="curved=1;startArrow=none;endArrow=block;exitX=0.22;exitY=1;entryX=0.5;entryY=0;rounded=0;" edge="1" parent="1" source="dajjcy8lkkAR254hlwYN-3" target="dajjcy8lkkAR254hlwYN-5">
          <mxGeometry relative="1" as="geometry">
            <Array as="points">
              <mxPoint x="170" y="617" />
            </Array>
          </mxGeometry>
        </mxCell>
        <mxCell id="dajjcy8lkkAR254hlwYN-15" value="Книга доступна" style="curved=1;startArrow=none;endArrow=block;exitX=0.42;exitY=1;entryX=0.5;entryY=0;rounded=0;" edge="1" parent="1" source="dajjcy8lkkAR254hlwYN-5" target="dajjcy8lkkAR254hlwYN-6">
          <mxGeometry relative="1" as="geometry">
            <Array as="points">
              <mxPoint x="147" y="881" />
            </Array>
          </mxGeometry>
        </mxCell>
        <mxCell id="dajjcy8lkkAR254hlwYN-16" value="Книга недоступна" style="curved=1;startArrow=none;endArrow=block;exitX=1;exitY=0.97;entryX=0.25;entryY=0;rounded=0;" edge="1" parent="1" source="dajjcy8lkkAR254hlwYN-5" target="dajjcy8lkkAR254hlwYN-7">
          <mxGeometry relative="1" as="geometry">
            <Array as="points">
              <mxPoint x="316" y="881" />
            </Array>
          </mxGeometry>
        </mxCell>
        <mxCell id="dajjcy8lkkAR254hlwYN-17" value="" style="curved=1;startArrow=none;endArrow=block;exitX=0.53;exitY=0;entryX=0.86;entryY=1;rounded=0;" edge="1" parent="1" source="dajjcy8lkkAR254hlwYN-7" target="dajjcy8lkkAR254hlwYN-3">
          <mxGeometry relative="1" as="geometry">
            <Array as="points">
              <mxPoint x="455" y="881" />
              <mxPoint x="455" y="617" />
            </Array>
          </mxGeometry>
        </mxCell>
        <mxCell id="dajjcy8lkkAR254hlwYN-18" value="" style="curved=1;startArrow=none;endArrow=block;exitX=0.5;exitY=1;entryX=0.5;entryY=0;rounded=0;" edge="1" parent="1" source="dajjcy8lkkAR254hlwYN-6" target="dajjcy8lkkAR254hlwYN-8">
          <mxGeometry relative="1" as="geometry">
            <Array as="points" />
          </mxGeometry>
        </mxCell>
        <mxCell id="Xar_051_JwcGe3-05TLg-20" value="" style="ellipse;fillColor=strokeColor;" vertex="1" parent="1">
          <mxGeometry x="279" y="31" width="29" height="24" as="geometry" />
        </mxCell>
        <mxCell id="Xar_051_JwcGe3-05TLg-23" value="" style="curved=1;startArrow=none;endArrow=block;exitX=0.5;exitY=1;entryX=0.5;entryY=0;rounded=0;" edge="1" parent="1" source="dajjcy8lkkAR254hlwYN-8" target="Xar_051_JwcGe3-05TLg-22">
          <mxGeometry relative="1" as="geometry">
            <Array as="points" />
            <mxPoint x="148" y="1099" as="sourcePoint" />
            <mxPoint x="147" y="1149" as="targetPoint" />
          </mxGeometry>
        </mxCell>
        <mxCell id="Xar_051_JwcGe3-05TLg-22" value="" style="ellipse;shape=endState;fillColor=strokeColor;" vertex="1" parent="1">
          <mxGeometry x="129" y="1136" width="36" height="30" as="geometry" />
        </mxCell>
      </root>
    </mxGraphModel>
  </diagram>
  <diagram name="Практика-2" id="eiqOF5-zXTv42RnrJuPr">
    <mxGraphModel dx="1235" dy="624" grid="1" gridSize="10" guides="1" tooltips="1" connect="1" arrows="1" fold="1" page="1" pageScale="1" pageWidth="827" pageHeight="1169" math="0" shadow="0">
      <root>
        <mxCell id="0" />
        <mxCell id="1" parent="0" />
        <mxCell id="ZZFowJuE0AuhGUEppNFp-1" value="" style="shape=umlLifeline;perimeter=lifelinePerimeter;whiteSpace=wrap;html=1;container=1;dropTarget=0;collapsible=0;recursiveResize=0;outlineConnect=0;portConstraint=eastwest;newEdgeStyle={&quot;curved&quot;:0,&quot;rounded&quot;:0};participant=umlActor;" vertex="1" parent="1">
          <mxGeometry x="50" y="60" width="20" height="700" as="geometry" />
        </mxCell>
        <mxCell id="ZZFowJuE0AuhGUEppNFp-2" value="" style="html=1;points=[[0,0,0,0,5],[0,1,0,0,-5],[1,0,0,0,5],[1,1,0,0,-5]];perimeter=orthogonalPerimeter;outlineConnect=0;targetShapes=umlLifeline;portConstraint=eastwest;newEdgeStyle={&quot;curved&quot;:0,&quot;rounded&quot;:0};" vertex="1" parent="ZZFowJuE0AuhGUEppNFp-1">
          <mxGeometry x="5" y="70" width="10" height="60" as="geometry" />
        </mxCell>
        <mxCell id="ZZFowJuE0AuhGUEppNFp-3" value="" style="html=1;points=[[0,0,0,0,5],[0,1,0,0,-5],[1,0,0,0,5],[1,1,0,0,-5]];perimeter=orthogonalPerimeter;outlineConnect=0;targetShapes=umlLifeline;portConstraint=eastwest;newEdgeStyle={&quot;curved&quot;:0,&quot;rounded&quot;:0};" vertex="1" parent="ZZFowJuE0AuhGUEppNFp-1">
          <mxGeometry x="5" y="170" width="10" height="70" as="geometry" />
        </mxCell>
        <mxCell id="ZZFowJuE0AuhGUEppNFp-4" value="" style="html=1;points=[[0,0,0,0,5],[0,1,0,0,-5],[1,0,0,0,5],[1,1,0,0,-5]];perimeter=orthogonalPerimeter;outlineConnect=0;targetShapes=umlLifeline;portConstraint=eastwest;newEdgeStyle={&quot;curved&quot;:0,&quot;rounded&quot;:0};" vertex="1" parent="ZZFowJuE0AuhGUEppNFp-1">
          <mxGeometry x="5" y="270" width="10" height="60" as="geometry" />
        </mxCell>
        <mxCell id="ZZFowJuE0AuhGUEppNFp-5" value="Система" style="shape=umlLifeline;perimeter=lifelinePerimeter;whiteSpace=wrap;html=1;container=1;dropTarget=0;collapsible=0;recursiveResize=0;outlineConnect=0;portConstraint=eastwest;newEdgeStyle={&quot;curved&quot;:0,&quot;rounded&quot;:0};" vertex="1" parent="1">
          <mxGeometry x="220" y="60" width="100" height="700" as="geometry" />
        </mxCell>
        <mxCell id="ZZFowJuE0AuhGUEppNFp-6" value="" style="html=1;points=[[0,0,0,0,5],[0,1,0,0,-5],[1,0,0,0,5],[1,1,0,0,-5]];perimeter=orthogonalPerimeter;outlineConnect=0;targetShapes=umlLifeline;portConstraint=eastwest;newEdgeStyle={&quot;curved&quot;:0,&quot;rounded&quot;:0};" vertex="1" parent="ZZFowJuE0AuhGUEppNFp-5">
          <mxGeometry x="45" y="70" width="10" height="60" as="geometry" />
        </mxCell>
        <mxCell id="ZZFowJuE0AuhGUEppNFp-7" value="" style="html=1;points=[[0,0,0,0,5],[0,1,0,0,-5],[1,0,0,0,5],[1,1,0,0,-5]];perimeter=orthogonalPerimeter;outlineConnect=0;targetShapes=umlLifeline;portConstraint=eastwest;newEdgeStyle={&quot;curved&quot;:0,&quot;rounded&quot;:0};" vertex="1" parent="ZZFowJuE0AuhGUEppNFp-5">
          <mxGeometry x="45" y="270" width="10" height="60" as="geometry" />
        </mxCell>
        <mxCell id="ZZFowJuE0AuhGUEppNFp-8" value="Склад" style="shape=umlLifeline;perimeter=lifelinePerimeter;whiteSpace=wrap;html=1;container=1;dropTarget=0;collapsible=0;recursiveResize=0;outlineConnect=0;portConstraint=eastwest;newEdgeStyle={&quot;curved&quot;:0,&quot;rounded&quot;:0};" vertex="1" parent="1">
          <mxGeometry x="420" y="60" width="100" height="700" as="geometry" />
        </mxCell>
        <mxCell id="ZZFowJuE0AuhGUEppNFp-9" value="" style="html=1;points=[[0,0,0,0,5],[0,1,0,0,-5],[1,0,0,0,5],[1,1,0,0,-5]];perimeter=orthogonalPerimeter;outlineConnect=0;targetShapes=umlLifeline;portConstraint=eastwest;newEdgeStyle={&quot;curved&quot;:0,&quot;rounded&quot;:0};" vertex="1" parent="ZZFowJuE0AuhGUEppNFp-8">
          <mxGeometry x="45" y="190" width="10" height="50" as="geometry" />
        </mxCell>
        <mxCell id="ZZFowJuE0AuhGUEppNFp-10" value="Платежный шлюз" style="shape=umlLifeline;perimeter=lifelinePerimeter;whiteSpace=wrap;html=1;container=1;dropTarget=0;collapsible=0;recursiveResize=0;outlineConnect=0;portConstraint=eastwest;newEdgeStyle={&quot;curved&quot;:0,&quot;rounded&quot;:0};" vertex="1" parent="1">
          <mxGeometry x="670" y="60" width="100" height="300" as="geometry" />
        </mxCell>
        <mxCell id="ZZFowJuE0AuhGUEppNFp-11" value="Входит систему" style="html=1;verticalAlign=bottom;endArrow=block;curved=0;rounded=0;" edge="1" parent="1">
          <mxGeometry width="80" relative="1" as="geometry">
            <mxPoint x="60.5" y="140" as="sourcePoint" />
            <mxPoint x="270" y="140" as="targetPoint" />
          </mxGeometry>
        </mxCell>
        <mxCell id="ZZFowJuE0AuhGUEppNFp-12" value="Авторизация пользователя&amp;nbsp;" style="html=1;verticalAlign=bottom;endArrow=open;dashed=1;endSize=8;curved=0;rounded=0;" edge="1" parent="1">
          <mxGeometry relative="1" as="geometry">
            <mxPoint x="270" y="180" as="sourcePoint" />
            <mxPoint x="60" y="180" as="targetPoint" />
            <mxPoint as="offset" />
          </mxGeometry>
        </mxCell>
        <mxCell id="ZZFowJuE0AuhGUEppNFp-13" value="Выбирает товар" style="html=1;verticalAlign=bottom;endArrow=block;curved=0;rounded=0;" edge="1" parent="1" target="ZZFowJuE0AuhGUEppNFp-5">
          <mxGeometry width="80" relative="1" as="geometry">
            <mxPoint x="60" y="240" as="sourcePoint" />
            <mxPoint x="140" y="240" as="targetPoint" />
          </mxGeometry>
        </mxCell>
        <mxCell id="ZZFowJuE0AuhGUEppNFp-14" value="Проверка наличие товара" style="html=1;verticalAlign=bottom;endArrow=block;curved=0;rounded=0;" edge="1" parent="1" target="ZZFowJuE0AuhGUEppNFp-8">
          <mxGeometry width="80" relative="1" as="geometry">
            <mxPoint x="270" y="260" as="sourcePoint" />
            <mxPoint x="350" y="260" as="targetPoint" />
          </mxGeometry>
        </mxCell>
        <mxCell id="ZZFowJuE0AuhGUEppNFp-15" value="товар в наличии" style="html=1;verticalAlign=bottom;endArrow=open;dashed=1;endSize=8;curved=0;rounded=0;" edge="1" parent="1" target="ZZFowJuE0AuhGUEppNFp-1">
          <mxGeometry relative="1" as="geometry">
            <mxPoint x="470" y="290" as="sourcePoint" />
            <mxPoint x="390" y="290" as="targetPoint" />
          </mxGeometry>
        </mxCell>
        <mxCell id="ZZFowJuE0AuhGUEppNFp-16" value="Добавление в корзин" style="html=1;verticalAlign=bottom;endArrow=block;curved=0;rounded=0;" edge="1" parent="1" target="ZZFowJuE0AuhGUEppNFp-5">
          <mxGeometry width="80" relative="1" as="geometry">
            <mxPoint x="60" y="340" as="sourcePoint" />
            <mxPoint x="140" y="340" as="targetPoint" />
          </mxGeometry>
        </mxCell>
        <mxCell id="ZZFowJuE0AuhGUEppNFp-17" value="Добавлении товара" style="html=1;verticalAlign=bottom;endArrow=open;dashed=1;endSize=8;curved=0;rounded=0;" edge="1" parent="1" source="ZZFowJuE0AuhGUEppNFp-5">
          <mxGeometry relative="1" as="geometry">
            <mxPoint x="140" y="380" as="sourcePoint" />
            <mxPoint x="60" y="380" as="targetPoint" />
          </mxGeometry>
        </mxCell>
        <mxCell id="ZZFowJuE0AuhGUEppNFp-18" value="ALT" style="shape=umlFrame;whiteSpace=wrap;html=1;pointerEvents=0;" vertex="1" parent="1">
          <mxGeometry x="30" y="420" width="480" height="280" as="geometry" />
        </mxCell>
        <mxCell id="ZZFowJuE0AuhGUEppNFp-19" value="Потверждение заказа" style="html=1;verticalAlign=bottom;endArrow=block;curved=0;rounded=0;" edge="1" parent="1" target="ZZFowJuE0AuhGUEppNFp-5">
          <mxGeometry width="80" relative="1" as="geometry">
            <mxPoint x="60" y="480" as="sourcePoint" />
            <mxPoint x="140" y="480" as="targetPoint" />
          </mxGeometry>
        </mxCell>
        <mxCell id="ZZFowJuE0AuhGUEppNFp-20" value="Бронирование товара" style="html=1;verticalAlign=bottom;endArrow=block;curved=0;rounded=0;" edge="1" parent="1" target="ZZFowJuE0AuhGUEppNFp-8">
          <mxGeometry width="80" relative="1" as="geometry">
            <mxPoint x="270" y="510" as="sourcePoint" />
            <mxPoint x="350" y="510" as="targetPoint" />
          </mxGeometry>
        </mxCell>
        <mxCell id="ZZFowJuE0AuhGUEppNFp-21" value="Товар забронировани" style="html=1;verticalAlign=bottom;endArrow=open;dashed=1;endSize=8;curved=0;rounded=0;" edge="1" parent="1" source="ZZFowJuE0AuhGUEppNFp-8">
          <mxGeometry relative="1" as="geometry">
            <mxPoint x="350" y="550" as="sourcePoint" />
            <mxPoint x="270" y="550" as="targetPoint" />
          </mxGeometry>
        </mxCell>
        <mxCell id="ZZFowJuE0AuhGUEppNFp-22" value="Заказ&amp;nbsp;подтвержден" style="html=1;verticalAlign=bottom;endArrow=open;dashed=1;endSize=8;curved=0;rounded=0;" edge="1" parent="1" source="ZZFowJuE0AuhGUEppNFp-5">
          <mxGeometry relative="1" as="geometry">
            <mxPoint x="140" y="580" as="sourcePoint" />
            <mxPoint x="60" y="580" as="targetPoint" />
          </mxGeometry>
        </mxCell>
        <mxCell id="ZZFowJuE0AuhGUEppNFp-23" value="" style="line;strokeWidth=1;fillColor=none;align=left;verticalAlign=middle;spacingTop=-1;spacingLeft=3;spacingRight=3;rotatable=0;labelPosition=right;points=[];portConstraint=eastwest;strokeColor=inherit;dashed=1;dashPattern=8 8;" vertex="1" parent="1">
          <mxGeometry x="30" y="600" width="480" height="8" as="geometry" />
        </mxCell>
        <mxCell id="ZZFowJuE0AuhGUEppNFp-24" value="" style="shape=umlLifeline;perimeter=lifelinePerimeter;whiteSpace=wrap;html=1;container=1;dropTarget=0;collapsible=0;recursiveResize=0;outlineConnect=0;portConstraint=eastwest;newEdgeStyle={&quot;curved&quot;:0,&quot;rounded&quot;:0};participant=umlActor;" vertex="1" parent="1">
          <mxGeometry x="50" y="60" width="20" height="1200" as="geometry" />
        </mxCell>
        <mxCell id="ZZFowJuE0AuhGUEppNFp-25" value="" style="html=1;points=[[0,0,0,0,5],[0,1,0,0,-5],[1,0,0,0,5],[1,1,0,0,-5]];perimeter=orthogonalPerimeter;outlineConnect=0;targetShapes=umlLifeline;portConstraint=eastwest;newEdgeStyle={&quot;curved&quot;:0,&quot;rounded&quot;:0};" vertex="1" parent="ZZFowJuE0AuhGUEppNFp-24">
          <mxGeometry x="5" y="70" width="10" height="60" as="geometry" />
        </mxCell>
        <mxCell id="ZZFowJuE0AuhGUEppNFp-26" value="" style="html=1;points=[[0,0,0,0,5],[0,1,0,0,-5],[1,0,0,0,5],[1,1,0,0,-5]];perimeter=orthogonalPerimeter;outlineConnect=0;targetShapes=umlLifeline;portConstraint=eastwest;newEdgeStyle={&quot;curved&quot;:0,&quot;rounded&quot;:0};" vertex="1" parent="ZZFowJuE0AuhGUEppNFp-24">
          <mxGeometry x="5" y="170" width="10" height="70" as="geometry" />
        </mxCell>
        <mxCell id="ZZFowJuE0AuhGUEppNFp-27" value="" style="html=1;points=[[0,0,0,0,5],[0,1,0,0,-5],[1,0,0,0,5],[1,1,0,0,-5]];perimeter=orthogonalPerimeter;outlineConnect=0;targetShapes=umlLifeline;portConstraint=eastwest;newEdgeStyle={&quot;curved&quot;:0,&quot;rounded&quot;:0};" vertex="1" parent="ZZFowJuE0AuhGUEppNFp-24">
          <mxGeometry x="5" y="270" width="10" height="60" as="geometry" />
        </mxCell>
        <mxCell id="ZZFowJuE0AuhGUEppNFp-28" value="" style="html=1;points=[[0,0,0,0,5],[0,1,0,0,-5],[1,0,0,0,5],[1,1,0,0,-5]];perimeter=orthogonalPerimeter;outlineConnect=0;targetShapes=umlLifeline;portConstraint=eastwest;newEdgeStyle={&quot;curved&quot;:0,&quot;rounded&quot;:0};" vertex="1" parent="ZZFowJuE0AuhGUEppNFp-24">
          <mxGeometry x="5" y="830" width="10" height="340" as="geometry" />
        </mxCell>
        <mxCell id="ZZFowJuE0AuhGUEppNFp-29" value="Система" style="shape=umlLifeline;perimeter=lifelinePerimeter;whiteSpace=wrap;html=1;container=1;dropTarget=0;collapsible=0;recursiveResize=0;outlineConnect=0;portConstraint=eastwest;newEdgeStyle={&quot;curved&quot;:0,&quot;rounded&quot;:0};" vertex="1" parent="1">
          <mxGeometry x="220" y="60" width="100" height="1200" as="geometry" />
        </mxCell>
        <mxCell id="ZZFowJuE0AuhGUEppNFp-30" value="" style="html=1;points=[[0,0,0,0,5],[0,1,0,0,-5],[1,0,0,0,5],[1,1,0,0,-5]];perimeter=orthogonalPerimeter;outlineConnect=0;targetShapes=umlLifeline;portConstraint=eastwest;newEdgeStyle={&quot;curved&quot;:0,&quot;rounded&quot;:0};" vertex="1" parent="ZZFowJuE0AuhGUEppNFp-29">
          <mxGeometry x="45" y="70" width="10" height="60" as="geometry" />
        </mxCell>
        <mxCell id="ZZFowJuE0AuhGUEppNFp-31" value="" style="html=1;points=[[0,0,0,0,5],[0,1,0,0,-5],[1,0,0,0,5],[1,1,0,0,-5]];perimeter=orthogonalPerimeter;outlineConnect=0;targetShapes=umlLifeline;portConstraint=eastwest;newEdgeStyle={&quot;curved&quot;:0,&quot;rounded&quot;:0};" vertex="1" parent="ZZFowJuE0AuhGUEppNFp-29">
          <mxGeometry x="45" y="270" width="10" height="60" as="geometry" />
        </mxCell>
        <mxCell id="ZZFowJuE0AuhGUEppNFp-32" value="" style="html=1;points=[[0,0,0,0,5],[0,1,0,0,-5],[1,0,0,0,5],[1,1,0,0,-5]];perimeter=orthogonalPerimeter;outlineConnect=0;targetShapes=umlLifeline;portConstraint=eastwest;newEdgeStyle={&quot;curved&quot;:0,&quot;rounded&quot;:0};" vertex="1" parent="ZZFowJuE0AuhGUEppNFp-29">
          <mxGeometry x="45" y="1120" width="10" height="40" as="geometry" />
        </mxCell>
        <mxCell id="ZZFowJuE0AuhGUEppNFp-33" value="Склад" style="shape=umlLifeline;perimeter=lifelinePerimeter;whiteSpace=wrap;html=1;container=1;dropTarget=0;collapsible=0;recursiveResize=0;outlineConnect=0;portConstraint=eastwest;newEdgeStyle={&quot;curved&quot;:0,&quot;rounded&quot;:0};" vertex="1" parent="1">
          <mxGeometry x="420" y="60" width="100" height="730" as="geometry" />
        </mxCell>
        <mxCell id="ZZFowJuE0AuhGUEppNFp-34" value="" style="html=1;points=[[0,0,0,0,5],[0,1,0,0,-5],[1,0,0,0,5],[1,1,0,0,-5]];perimeter=orthogonalPerimeter;outlineConnect=0;targetShapes=umlLifeline;portConstraint=eastwest;newEdgeStyle={&quot;curved&quot;:0,&quot;rounded&quot;:0};" vertex="1" parent="ZZFowJuE0AuhGUEppNFp-33">
          <mxGeometry x="45" y="190" width="10" height="50" as="geometry" />
        </mxCell>
        <mxCell id="ZZFowJuE0AuhGUEppNFp-35" value="Платежный шлюз" style="shape=umlLifeline;perimeter=lifelinePerimeter;whiteSpace=wrap;html=1;container=1;dropTarget=0;collapsible=0;recursiveResize=0;outlineConnect=0;portConstraint=eastwest;newEdgeStyle={&quot;curved&quot;:0,&quot;rounded&quot;:0};size=40;" vertex="1" parent="1">
          <mxGeometry x="540" y="930" width="100" height="330" as="geometry" />
        </mxCell>
        <mxCell id="ZZFowJuE0AuhGUEppNFp-36" value="" style="html=1;points=[[0,0,0,0,5],[0,1,0,0,-5],[1,0,0,0,5],[1,1,0,0,-5]];perimeter=orthogonalPerimeter;outlineConnect=0;targetShapes=umlLifeline;portConstraint=eastwest;newEdgeStyle={&quot;curved&quot;:0,&quot;rounded&quot;:0};" vertex="1" parent="ZZFowJuE0AuhGUEppNFp-35">
          <mxGeometry x="45" y="120" width="10" height="40" as="geometry" />
        </mxCell>
        <mxCell id="ZZFowJuE0AuhGUEppNFp-37" value="валидация&lt;div&gt;платежа&lt;/div&gt;" style="html=1;align=left;spacingLeft=2;endArrow=block;rounded=0;edgeStyle=orthogonalEdgeStyle;curved=0;rounded=0;" edge="1" parent="ZZFowJuE0AuhGUEppNFp-35" target="ZZFowJuE0AuhGUEppNFp-36">
          <mxGeometry relative="1" as="geometry">
            <mxPoint x="50" y="100" as="sourcePoint" />
            <Array as="points">
              <mxPoint x="80" y="130" />
            </Array>
          </mxGeometry>
        </mxCell>
        <mxCell id="ZZFowJuE0AuhGUEppNFp-38" value="" style="html=1;points=[[0,0,0,0,5],[0,1,0,0,-5],[1,0,0,0,5],[1,1,0,0,-5]];perimeter=orthogonalPerimeter;outlineConnect=0;targetShapes=umlLifeline;portConstraint=eastwest;newEdgeStyle={&quot;curved&quot;:0,&quot;rounded&quot;:0};" vertex="1" parent="ZZFowJuE0AuhGUEppNFp-35">
          <mxGeometry x="50" y="210" width="10" height="40" as="geometry" />
        </mxCell>
        <mxCell id="ZZFowJuE0AuhGUEppNFp-39" value="создание&lt;div&gt;оплаты&lt;/div&gt;" style="html=1;align=left;spacingLeft=2;endArrow=block;rounded=0;edgeStyle=orthogonalEdgeStyle;curved=0;rounded=0;" edge="1" parent="ZZFowJuE0AuhGUEppNFp-35" target="ZZFowJuE0AuhGUEppNFp-38">
          <mxGeometry relative="1" as="geometry">
            <mxPoint x="55" y="190" as="sourcePoint" />
            <Array as="points">
              <mxPoint x="85" y="220" />
            </Array>
          </mxGeometry>
        </mxCell>
        <mxCell id="ZZFowJuE0AuhGUEppNFp-40" value="Входит систему" style="html=1;verticalAlign=bottom;endArrow=block;curved=0;rounded=0;" edge="1" parent="1">
          <mxGeometry width="80" relative="1" as="geometry">
            <mxPoint x="60.5" y="140" as="sourcePoint" />
            <mxPoint x="270" y="140" as="targetPoint" />
          </mxGeometry>
        </mxCell>
        <mxCell id="ZZFowJuE0AuhGUEppNFp-41" value="Авторизация пользователя&amp;nbsp;" style="html=1;verticalAlign=bottom;endArrow=open;dashed=1;endSize=8;curved=0;rounded=0;" edge="1" parent="1">
          <mxGeometry relative="1" as="geometry">
            <mxPoint x="270" y="180" as="sourcePoint" />
            <mxPoint x="60" y="180" as="targetPoint" />
            <mxPoint as="offset" />
          </mxGeometry>
        </mxCell>
        <mxCell id="ZZFowJuE0AuhGUEppNFp-42" value="Выбирает товар" style="html=1;verticalAlign=bottom;endArrow=block;curved=0;rounded=0;" edge="1" parent="1" target="ZZFowJuE0AuhGUEppNFp-29">
          <mxGeometry width="80" relative="1" as="geometry">
            <mxPoint x="60" y="240" as="sourcePoint" />
            <mxPoint x="140" y="240" as="targetPoint" />
          </mxGeometry>
        </mxCell>
        <mxCell id="ZZFowJuE0AuhGUEppNFp-43" value="Проверка наличие товара" style="html=1;verticalAlign=bottom;endArrow=block;curved=0;rounded=0;" edge="1" parent="1" target="ZZFowJuE0AuhGUEppNFp-33">
          <mxGeometry width="80" relative="1" as="geometry">
            <mxPoint x="270" y="260" as="sourcePoint" />
            <mxPoint x="350" y="260" as="targetPoint" />
          </mxGeometry>
        </mxCell>
        <mxCell id="ZZFowJuE0AuhGUEppNFp-44" value="товар в наличии" style="html=1;verticalAlign=bottom;endArrow=open;dashed=1;endSize=8;curved=0;rounded=0;" edge="1" parent="1" target="ZZFowJuE0AuhGUEppNFp-24">
          <mxGeometry relative="1" as="geometry">
            <mxPoint x="470" y="290" as="sourcePoint" />
            <mxPoint x="390" y="290" as="targetPoint" />
          </mxGeometry>
        </mxCell>
        <mxCell id="ZZFowJuE0AuhGUEppNFp-45" value="Добавление в корзин" style="html=1;verticalAlign=bottom;endArrow=block;curved=0;rounded=0;" edge="1" parent="1" target="ZZFowJuE0AuhGUEppNFp-29">
          <mxGeometry width="80" relative="1" as="geometry">
            <mxPoint x="60" y="340" as="sourcePoint" />
            <mxPoint x="140" y="340" as="targetPoint" />
          </mxGeometry>
        </mxCell>
        <mxCell id="ZZFowJuE0AuhGUEppNFp-46" value="Добавлении товара" style="html=1;verticalAlign=bottom;endArrow=open;dashed=1;endSize=8;curved=0;rounded=0;" edge="1" parent="1" source="ZZFowJuE0AuhGUEppNFp-29">
          <mxGeometry relative="1" as="geometry">
            <mxPoint x="140" y="380" as="sourcePoint" />
            <mxPoint x="60" y="380" as="targetPoint" />
          </mxGeometry>
        </mxCell>
        <mxCell id="ZZFowJuE0AuhGUEppNFp-47" value="ALT" style="shape=umlFrame;whiteSpace=wrap;html=1;pointerEvents=0;" vertex="1" parent="1">
          <mxGeometry x="30" y="420" width="480" height="300" as="geometry" />
        </mxCell>
        <mxCell id="ZZFowJuE0AuhGUEppNFp-48" value="Потверждение заказа" style="html=1;verticalAlign=bottom;endArrow=block;curved=0;rounded=0;" edge="1" parent="1" target="ZZFowJuE0AuhGUEppNFp-29">
          <mxGeometry width="80" relative="1" as="geometry">
            <mxPoint x="60" y="480" as="sourcePoint" />
            <mxPoint x="140" y="480" as="targetPoint" />
          </mxGeometry>
        </mxCell>
        <mxCell id="ZZFowJuE0AuhGUEppNFp-49" value="Бронирование товара" style="html=1;verticalAlign=bottom;endArrow=block;curved=0;rounded=0;" edge="1" parent="1" target="ZZFowJuE0AuhGUEppNFp-33">
          <mxGeometry width="80" relative="1" as="geometry">
            <mxPoint x="270" y="510" as="sourcePoint" />
            <mxPoint x="350" y="510" as="targetPoint" />
          </mxGeometry>
        </mxCell>
        <mxCell id="ZZFowJuE0AuhGUEppNFp-50" value="Товар забронирован" style="html=1;verticalAlign=bottom;endArrow=open;dashed=1;endSize=8;curved=0;rounded=0;" edge="1" parent="1" source="ZZFowJuE0AuhGUEppNFp-33">
          <mxGeometry relative="1" as="geometry">
            <mxPoint x="350" y="550" as="sourcePoint" />
            <mxPoint x="270" y="550" as="targetPoint" />
          </mxGeometry>
        </mxCell>
        <mxCell id="ZZFowJuE0AuhGUEppNFp-51" value="Заказ&amp;nbsp;подтвержден" style="html=1;verticalAlign=bottom;endArrow=open;dashed=1;endSize=8;curved=0;rounded=0;" edge="1" parent="1" source="ZZFowJuE0AuhGUEppNFp-29">
          <mxGeometry relative="1" as="geometry">
            <mxPoint x="140" y="580" as="sourcePoint" />
            <mxPoint x="60" y="580" as="targetPoint" />
          </mxGeometry>
        </mxCell>
        <mxCell id="ZZFowJuE0AuhGUEppNFp-52" value="Товар не забронирован" style="html=1;verticalAlign=bottom;endArrow=open;dashed=1;endSize=8;curved=0;rounded=0;" edge="1" parent="1">
          <mxGeometry relative="1" as="geometry">
            <mxPoint x="470" y="660" as="sourcePoint" />
            <mxPoint x="270" y="660" as="targetPoint" />
          </mxGeometry>
        </mxCell>
        <mxCell id="ZZFowJuE0AuhGUEppNFp-53" value="Товар не подвержден" style="html=1;verticalAlign=bottom;endArrow=open;dashed=1;endSize=8;curved=0;rounded=0;" edge="1" parent="1" target="ZZFowJuE0AuhGUEppNFp-24">
          <mxGeometry relative="1" as="geometry">
            <mxPoint x="270" y="680" as="sourcePoint" />
            <mxPoint x="190" y="680" as="targetPoint" />
          </mxGeometry>
        </mxCell>
        <mxCell id="ZZFowJuE0AuhGUEppNFp-54" value="Оплата онлайн" style="html=1;verticalAlign=bottom;endArrow=block;curved=0;rounded=0;" edge="1" parent="1">
          <mxGeometry width="80" relative="1" as="geometry">
            <mxPoint x="60" y="760" as="sourcePoint" />
            <mxPoint x="269.5000000000002" y="760" as="targetPoint" />
          </mxGeometry>
        </mxCell>
        <mxCell id="ZZFowJuE0AuhGUEppNFp-55" value="Заполнение формы" style="html=1;verticalAlign=bottom;endArrow=open;dashed=1;endSize=8;curved=0;rounded=0;" edge="1" parent="1">
          <mxGeometry relative="1" as="geometry">
            <mxPoint x="270" y="820" as="sourcePoint" />
            <mxPoint x="59.66666666666663" y="820" as="targetPoint" />
          </mxGeometry>
        </mxCell>
        <mxCell id="ZZFowJuE0AuhGUEppNFp-56" value="отправка формы" style="html=1;verticalAlign=bottom;endArrow=block;curved=0;rounded=0;" edge="1" parent="1" target="ZZFowJuE0AuhGUEppNFp-29">
          <mxGeometry width="80" relative="1" as="geometry">
            <mxPoint x="60" y="900" as="sourcePoint" />
            <mxPoint x="140" y="900" as="targetPoint" />
          </mxGeometry>
        </mxCell>
        <mxCell id="ZZFowJuE0AuhGUEppNFp-57" value="" style="html=1;points=[[0,0,0,0,5],[0,1,0,0,-5],[1,0,0,0,5],[1,1,0,0,-5]];perimeter=orthogonalPerimeter;outlineConnect=0;targetShapes=umlLifeline;portConstraint=eastwest;newEdgeStyle={&quot;curved&quot;:0,&quot;rounded&quot;:0};" vertex="1" parent="1">
          <mxGeometry x="270" y="920" width="10" height="40" as="geometry" />
        </mxCell>
        <mxCell id="ZZFowJuE0AuhGUEppNFp-58" value="проверка&lt;div&gt;валидации данных&lt;/div&gt;" style="html=1;align=left;spacingLeft=2;endArrow=block;rounded=0;edgeStyle=orthogonalEdgeStyle;curved=0;rounded=0;" edge="1" parent="1" target="ZZFowJuE0AuhGUEppNFp-57">
          <mxGeometry relative="1" as="geometry">
            <mxPoint x="275" y="900" as="sourcePoint" />
            <Array as="points">
              <mxPoint x="305" y="930" />
            </Array>
          </mxGeometry>
        </mxCell>
        <mxCell id="ZZFowJuE0AuhGUEppNFp-59" value="оплата" style="html=1;verticalAlign=bottom;endArrow=block;curved=0;rounded=0;entryX=0;entryY=0.067;entryDx=0;entryDy=0;entryPerimeter=0;dashed=1;dashPattern=12 12;" edge="1" parent="1" target="ZZFowJuE0AuhGUEppNFp-35">
          <mxGeometry width="80" relative="1" as="geometry">
            <mxPoint x="280" y="950" as="sourcePoint" />
            <mxPoint x="360" y="950" as="targetPoint" />
          </mxGeometry>
        </mxCell>
        <mxCell id="ZZFowJuE0AuhGUEppNFp-60" value="подверждение оплаты" style="html=1;verticalAlign=bottom;endArrow=open;dashed=1;endSize=8;curved=0;rounded=0;" edge="1" parent="1" target="ZZFowJuE0AuhGUEppNFp-29">
          <mxGeometry relative="1" as="geometry">
            <mxPoint x="590" y="1180" as="sourcePoint" />
            <mxPoint x="510" y="1180" as="targetPoint" />
          </mxGeometry>
        </mxCell>
        <mxCell id="ZZFowJuE0AuhGUEppNFp-61" value="уведомление об оплате" style="html=1;verticalAlign=bottom;endArrow=open;dashed=1;endSize=8;curved=0;rounded=0;" edge="1" parent="1" target="ZZFowJuE0AuhGUEppNFp-24">
          <mxGeometry relative="1" as="geometry">
            <mxPoint x="260" y="1220" as="sourcePoint" />
            <mxPoint x="180" y="1220" as="targetPoint" />
          </mxGeometry>
        </mxCell>
        <mxCell id="ZZFowJuE0AuhGUEppNFp-62" value="отправка push / sms" style="html=1;verticalAlign=bottom;endArrow=open;dashed=1;endSize=8;curved=0;rounded=0;" edge="1" parent="1" target="ZZFowJuE0AuhGUEppNFp-24">
          <mxGeometry relative="1" as="geometry">
            <mxPoint x="590" y="1260" as="sourcePoint" />
            <mxPoint x="510" y="1260" as="targetPoint" />
          </mxGeometry>
        </mxCell>
        <mxCell id="ZZFowJuE0AuhGUEppNFp-63" value="" style="shape=umlDestroy;whiteSpace=wrap;html=1;strokeWidth=3;targetShapes=umlLifeline;" vertex="1" parent="1">
          <mxGeometry x="455" y="780" width="30" height="30" as="geometry" />
        </mxCell>
      </root>
    </mxGraphModel>
  </diagram>
</mxfile>
